<svg width="16" height="16" viewBox="0 0 16 16" fill="none" xmlns="http://www.w3.org/2000/svg">
<path fill-rule="evenodd" clip-rule="evenodd" d="M3.31064 3.35578C4.64701 3.22082 5.98354 3.15332 7.32016 3.15332C9.56374 3.15332 11.8135 3.26751 14.0495 3.48909C14.3243 3.51632 14.525 3.76117 14.4977 4.03596C14.4705 4.31076 14.2256 4.51145 13.9509 4.48422C11.7468 4.26579 9.52991 4.15332 7.32016 4.15332C6.01703 4.15332 4.7138 4.21913 3.41041 4.35079L3.40894 4.35093L2.04894 4.48427C1.77412 4.51121 1.52949 4.31026 1.50254 4.03544C1.4756 3.76061 1.67655 3.51598 1.95137 3.48904L3.31064 3.35578Z" fill="black"/>
<path fill-rule="evenodd" clip-rule="evenodd" d="M6.30655 2.52308L6.15992 3.39618C6.11419 3.66851 5.85635 3.8522 5.58402 3.80647C5.31169 3.76073 5.128 3.50289 5.17373 3.23056L5.3204 2.35723C5.32296 2.34202 5.3256 2.32609 5.32827 2.30996C5.37417 2.0327 5.44152 1.62596 5.71265 1.3185C6.02869 0.960119 6.51089 0.833374 7.12683 0.833374H8.87349C9.49692 0.833374 9.97864 0.970307 10.2928 1.33234C10.5643 1.64521 10.63 2.05341 10.6738 2.32598C10.6759 2.33924 10.678 2.35218 10.6801 2.36478L10.8265 3.22994C10.8726 3.50222 10.6892 3.76029 10.4169 3.80636C10.1447 3.85244 9.88658 3.66907 9.8405 3.3968L9.69333 2.52717C9.63757 2.18515 9.6023 2.06239 9.53752 1.98774C9.50168 1.94644 9.37673 1.83337 8.87349 1.83337H7.12683C6.6161 1.83337 6.49496 1.9433 6.46267 1.97991C6.40126 2.04955 6.3666 2.16655 6.30655 2.52308Z" fill="black"/>
<path fill-rule="evenodd" clip-rule="evenodd" d="M12.599 5.59444C12.8746 5.61223 13.0836 5.85004 13.0658 6.12561L12.6323 12.8417L12.6314 12.8543C12.6138 13.1052 12.5945 13.381 12.5428 13.6376C12.4892 13.9038 12.3948 14.1846 12.2034 14.4338C11.8026 14.9556 11.1205 15.1667 10.1402 15.1667H5.86016C4.87978 15.1667 4.19774 14.9556 3.79696 14.4338C3.60555 14.1846 3.51109 13.9038 3.4575 13.6376C3.40581 13.381 3.3865 13.1052 3.36893 12.8543L3.36785 12.8389L2.93453 6.12561C2.91674 5.85004 3.12571 5.61223 3.40128 5.59444C3.67685 5.57665 3.91466 5.78563 3.93245 6.06119L4.3656 12.7718C4.36563 12.7722 4.36566 12.7727 4.3657 12.7732C4.38451 13.0417 4.40044 13.2546 4.43781 13.4402C4.47422 13.621 4.52476 13.7397 4.59002 13.8247C4.70257 13.9712 4.98053 14.1667 5.86016 14.1667H10.1402C11.0198 14.1667 11.2977 13.9712 11.4103 13.8247C11.4756 13.7397 11.5261 13.621 11.5625 13.4402C11.5999 13.2546 11.6158 13.0417 11.6346 12.7732C11.6346 12.7727 11.6347 12.7722 11.6347 12.7718L12.0679 6.06119C12.0856 5.78563 12.3235 5.57665 12.599 5.59444Z" fill="black"/>
<path fill-rule="evenodd" clip-rule="evenodd" d="M6.38684 11C6.38684 10.7239 6.6107 10.5 6.88684 10.5H9.10684C9.38298 10.5 9.60684 10.7239 9.60684 11C9.60684 11.2761 9.38298 11.5 9.10684 11.5H6.88684C6.6107 11.5 6.38684 11.2761 6.38684 11Z" fill="black"/>
<path fill-rule="evenodd" clip-rule="evenodd" d="M5.8335 8.33337C5.8335 8.05723 6.05735 7.83337 6.3335 7.83337H9.66683C9.94297 7.83337 10.1668 8.05723 10.1668 8.33337C10.1668 8.60952 9.94297 8.83337 9.66683 8.83337H6.3335C6.05735 8.83337 5.8335 8.60952 5.8335 8.33337Z" fill="black"/>
</svg>
