<svg width="16" height="16" viewBox="0 0 16 16" fill="none" xmlns="http://www.w3.org/2000/svg">
<path fill-rule="evenodd" clip-rule="evenodd" d="M10.345 0.958172C11.1228 0.858708 11.9098 1.17678 12.7094 1.92915L12.7103 1.93002C13.5126 2.68875 13.8778 3.45841 13.8231 4.24233C13.7701 4.99983 13.331 5.64097 12.8302 6.17001M12.8302 6.17001L7.3596 11.9605C7.20538 12.1284 6.99772 12.2706 6.80085 12.3759C6.60146 12.4825 6.37081 12.5738 6.15429 12.6122L6.15096 12.6128L4.00506 12.9794C3.48468 13.0691 2.98568 12.939 2.63021 12.6019C2.27524 12.2653 2.11839 11.7744 2.1765 11.2514L2.17667 11.2499L2.4244 9.08054C2.45318 8.86474 2.53332 8.63122 2.62779 8.42864C2.72192 8.22679 2.85036 8.01276 3.00235 7.85096L3.00332 7.84993L8.47666 2.05659C8.97768 1.52734 9.59337 1.05429 10.345 0.958172M9.20321 2.7437C9.20312 2.74379 9.20329 2.74362 9.20321 2.7437L3.7312 8.53564C3.73108 8.53576 3.73131 8.53552 3.7312 8.53564C3.67655 8.59395 3.60148 8.70678 3.53408 8.85129C3.46791 8.99319 3.42816 9.12446 3.41625 9.20884L3.17038 11.3618C3.17035 11.3621 3.17033 11.3623 3.1703 11.3625C3.14196 11.6192 3.22172 11.7847 3.31833 11.8763C3.41453 11.9676 3.58219 12.0375 3.83515 11.9939L3.83592 11.9938L5.98066 11.6274C6.06418 11.6123 6.19285 11.567 6.32936 11.494C6.46775 11.42 6.57185 11.3402 6.62396 11.2831L6.62993 11.2765L12.1033 5.48326C12.5491 5.01236 12.7968 4.58326 12.8255 4.1726C12.8524 3.78829 12.6943 3.29146 12.0238 2.6571C11.3569 2.02977 10.854 1.90123 10.4719 1.95009C10.0636 2.0023 9.64876 2.27312 9.20321 2.7437Z" fill="black"/>
<path fill-rule="evenodd" clip-rule="evenodd" d="M7.84986 2.87261C8.12271 2.8301 8.37836 3.01683 8.42087 3.28968C8.67229 4.90342 9.98197 6.1385 11.6103 6.3025C11.885 6.33017 12.0853 6.57534 12.0576 6.85009C12.03 7.12484 11.7848 7.32514 11.5101 7.29746C9.43169 7.08813 7.75471 5.50987 7.43279 3.44362C7.39028 3.17077 7.57701 2.91512 7.84986 2.87261Z" fill="black"/>
<path fill-rule="evenodd" clip-rule="evenodd" d="M1.50012 14.6666C1.50012 14.3905 1.72398 14.1666 2.00012 14.1666H14.0001C14.2763 14.1666 14.5001 14.3905 14.5001 14.6666C14.5001 14.9428 14.2763 15.1666 14.0001 15.1666H2.00012C1.72398 15.1666 1.50012 14.9428 1.50012 14.6666Z" fill="black"/>
</svg>
